# AST/ASF file generated using VICON BodyLanguage
# -----------------------------------------------
:version 1.10
:name VICON
:units
  mass 1.0
  length 0.45
  angle deg
:documentation
   .ast/.asf automatically generated from VICON data using
   VICON BodyBuilder and BodyLanguage model FoxedUp or BRILLIANT.MOD
:root
   order TX TY TZ RX RY RZ
   axis XYZ
   position 0 0 0  
   orientation 0 0 0 
:bonedata
  begin
     id 1 
     name lhipjoint
     direction 0.588788 -0.725889 0.355548 
     length 2.37778 
     axis 0 0 0  XYZ
  end
  begin
     id 2 
     name lfemur
     direction 0.34202 -0.939693 0  
     length 6.86393  
     axis 0 0 20  XYZ
    dof rx ry rz
    limits (-160.0 20.0)
           (-70.0 70.0)
           (-60.0 70.0)
  end
  begin
     id 3 
     name ltibia
     direction 0.34202 -0.939693 0   
     length 7.32851   
     axis 0 0 20   XYZ
    dof rx
    limits (-10.0 170.0)
  end
  begin
     id 4 
     name lfoot
     direction 0.0626533 -0.172138 0.983078   
     length 1.98929   
     axis -90 7.62852e-016 20   XYZ
    dof rx rz
    limits (-45.0 90.0)
           (-70.0 20.0)
  end
  begin
     id 5 
     name ltoes
     direction 1.53647e-011 -4.21734e-011 1   
     length 1.00479   
     axis -90 7.62852e-016 20   XYZ
    dof rx
    limits (-90.0 20.0)
  end
  begin
     id 6 
     name rhipjoint
     direction -0.59141 -0.724168 0.354705   
     length 2.38343  
     axis 0 0 0  XYZ 
  end
  begin
     id 7 
     name rfemur
     direction -0.34202 -0.939693 0   
     length 6.95589   
     axis 0 0 -20   XYZ
    dof rx ry rz
    limits (-160.0 20.0)
           (-70.0 70.0)
           (-70.0 60.0)
  end
  begin
     id 8 
     name rtibia
     direction -0.34202 -0.939693 0   
     length 7.32327   
     axis 0 0 -20   XYZ
    dof rx
    limits (-10.0 170.0)
 end
 begin
     id 9 
     name rfoot
     direction -0.0660461 -0.18146 0.981178   
     length 1.85272  
     axis -90 -7.62852e-016 -20   XYZ
    dof rx rz
    limits (-45.0 90.0)
           (-20.0 70.0)
  end
  begin
     id 10 
     name rtoes
     direction -1.53586e-011 -4.21988e-011 1   
     length 0.93746   
     axis -90 -7.62852e-016 -20   XYZ
    dof rx
    limits (-90.0 20.0)
  end
  begin
     id 11 
     name lowerback
     direction -0.0107982 0.991059 0.13299   
     length 1.98691   
     axis 0 0 0   XYZ
    dof rx ry rz
    limits (-20.0 45.0)
           (-30.0 30.0)
           (-30.0 30.0)
  end
  begin
     id 12 
     name upperback
     direction 0.0076296 0.999916 0.0104576   
     length 1.99501   
     axis 0 0 0   XYZ
    dof rx ry rz
    limits (-20.0 45.0)
           (-30.0 30.0)
           (-30.0 30.0)
  end
  begin
     id 13 
     name thorax
     direction 0.01176 0.998615 -0.0512909   
     length 2.03144   
     axis 0 0 0   XYZ
    dof rx ry rz
    limits (-20.0 45.0)
           (-30.0 30.0)
           (-30.0 30.0)
  end
  begin
     id 14 
     name lowerneck
     direction -0.0171909 0.999644 0.0204011   
     length 1.71818   
     axis 0 0 0   XYZ
    dof rx ry rz
    limits (-20.0 45.0)
           (-30.0 30.0)
           (-30.0 30.0)
  end
  begin
     id 15 
     name upperneck
     direction 0.0250902 0.997482 -0.0663316   
     length 1.66199   
     axis 0 0 0   XYZ
    dof rx ry rz
    limits (-20.0 45.0)
           (-30.0 30.0)
           (-30.0 30.0)
  end
  begin
     id 16
     name head
     direction 0.00881535 0.99956 -0.0283365  
     length 1.81545  
     axis 0 0 0   XYZ
    dof rx ry rz
    limits (-20.0 45.0)
           (-30.0 30.0)
           (-30.0 30.0)
  end
  begin
     id 17 
     name lclavicle
     direction 0.840411 0.486876 -0.238035  
     length 3.30409  
     axis 0 0 0   XYZ
    dof ry rz
    limits (-20.0 10.0)
           (0.0 20.0)
  end
  begin
     id 18 
     name lhumerus
     direction 1 -4.48977e-011 -5.16239e-027   
     length 4.62672   
     axis 180 -30 -90   XYZ
    dof rx ry rz
    limits (-60.0 90.0)
           (-90.0 90.0)
           (-90.0 90.0)
  end
  begin
     id 19
     name lradius
     direction 1 -4.48977e-011 -8.71171e-027   
     length 3.11018   
     axis 180 -30 -90   XYZ
    dof rx
    limits (-10.0 170.0)
  end
  begin
     id 20
     name lwrist
     direction 1 -4.48912e-011 -1.03764e-026   
     length 1.55509   
     axis 9.09556e-015 90 90   XYZ
    dof ry
    limits (-180.0 0.0)
 end
  begin
     id 21 
     name lhand
     direction 1 -4.49072e-011 -2.07528e-026   
     length 0.743834   
     axis 1.3242e-014 90 90   XYZ
    dof rx rz
    limits (-90.0 90.0)
           (-45.0 45.0)
  end
  begin
     id 22 
     name lfingers
     direction 1 -4.48909e-011 -4.15056e-026   
     length 0.599698   
     axis 2.64841e-014 90 90   XYZ
    dof rx
    limits (0.0 90.0)
  end
  begin
     id 23
     name lthumb
     direction 0.707107 -6.35013e-011 0.707107   
     length 0.86105   
     axis -90 45 2.85299e-015   XYZ
    dof rx rz
    limits (-45.0 45.0)
           (-45.0 45.0)
  end
  begin
     id 24 
     name rclavicle
     direction -0.835208 0.500237 -0.228452   
     length 3.2716  
     axis 0 0 0   XYZ 
    dof ry rz
    limits (-10.0 20.0)
           (-20.0 0.0)
  end
  begin
     id 25 
     name rhumerus
     direction -1 -4.48978e-011 -5.1953e-028  
     length 4.55919   
     axis 180 30 90   XYZ
    dof rx ry rz
    limits (-90.0 60.0)
           (-90.0 90.0)
           (-90.0 90.0)
  end
  begin
     id 26 
     name rradius
     direction -1 -4.48961e-011 -5.99546e-027   
     length 3.22748   
     axis 180 30 90   XYZ
    dof rx
    limits (-10.0 170.0)
  end
  begin
     id 27 
     name rwrist
     direction -1 -4.48986e-011 -1.03764e-026   
     length 1.61374   
     axis 9.09556e-015 -90 -90   XYZ
    dof ry
    limits (-180.0 0.0)
  end
  begin
     id 28
     name rhand
     direction -1 -4.4899e-011 -2.07528e-026   
     length 0.700882   
     axis 1.3242e-014 -90 -90   XYZ
    dof rx rz
    limits (-90.0 90.0)
           (-45.0 45.0)
  end
  begin
     id 29
     name rfingers
     direction -1 -4.48991e-011 -4.15056e-026   
     length 0.565069   
     axis 2.64841e-014 -90 -90   XYZ
    dof rx
    limits (0.0 90.0)
  end
  begin
     id 30
     name rthumb
     direction -0.707107 -6.34804e-011 0.707107   
     length 0.811329   
     axis -90 -45 -2.85299e-015   XYZ
    dof rx rz
    limits (-45.0 45.0)
           (-45.0 45.0)
  end
:hierarchy
  begin
    root lhipjoint rhipjoint lowerback
    lhipjoint lfemur
    lfemur ltibia
    ltibia lfoot
    lfoot ltoes
    rhipjoint rfemur
    rfemur rtibia
    rtibia rfoot
    rfoot rtoes
    lowerback upperback
    upperback thorax
    thorax lowerneck lclavicle rclavicle
    lowerneck upperneck
    upperneck head
    lclavicle lhumerus
    lhumerus lradius
    lradius lwrist
    lwrist lhand lthumb
    lhand lfingers
    rclavicle rhumerus
    rhumerus rradius
    rradius rwrist
    rwrist rhand rthumb
    rhand rfingers
  end

#!OML:ASF F:\VICON\USERDATA\INSTALL\SteveWalk\SteveWalk.ASF
:FULLY-SPECIFIED
:DEGREES
285
root -0.27478 15.9671 12.8437 19.297 -6.65115 -2.50194
lowerback -17.9739 2.46408 1.19428
upperback -5.91695 2.99234 0.406229
thorax 3.74913 1.47184 0.37433
lowerneck -4.55604 -0.553379 -0.1099
upperneck 10.4259 -0.771014 0.324676
head 4.23326 -0.369853 0.0888722
rclavicle -4.59146e-015 -1.78906e-015
rhumerus -27.7036 9.04997 -85.5448
rradius 62.1973
rwrist -18.4333
rhand -16.1853 -30.174
rfingers 7.12502
rthumb 10.0214 -59.9154
lclavicle -4.59146e-015 -1.78906e-015
lhumerus -57.9726 20.1066 63.8879
lradius 14.2405
lwrist -25.689
lhand -11.657 -15.2855
lfingers 7.12502
lthumb 14.3875 14.1959
rfemur -1.71912 -5.09547 22.7977
rtibia 20.4981
rfoot -23.6449 17.3273
rtoes -12.2132
lfemur -49.8626 5.12746 -20.6329
ltibia 17.5945
lfoot -9.45726 0.588675
ltoes -3.9645
286
root -0.264266 15.935 13.0784 18.9882 -6.21354 -2.17956
lowerback -17.7292 2.28581 0.74394
upperback -5.93637 2.8468 0.305718
thorax 3.58369 1.40234 0.481267
lowerneck -4.77394 -0.63707 -0.0740465
upperneck 10.5608 -0.895815 0.402331
head 4.32638 -0.425747 0.101237
rclavicle -1.40546e-014 -6.30831e-015
rhumerus -28.683 9.05397 -85.746
rradius 62.5937
rwrist -19.7967
rhand -18.2727 -31.8912
rfingers 7.12502
rthumb 8.00719 -61.7195
lclavicle -1.40546e-014 -6.30831e-015
lhumerus -58.6143 21.3464 61.7729
lradius 13.6831
lwrist -27.8494
lhand -11.9048 -15.5785
lfingers 7.12502
lthumb 14.1487 13.9197
rfemur -0.748536 -4.85356 22.3422
rtibia 20.9545
rfoot -22.7159 17.6662
rtoes -11.5229
lfemur -49.6922 4.31934 -20.8641
ltibia 19.2151
lfoot -8.38538 1.17049
ltoes -9.64584
287
root -0.24915 15.9304 13.3287 18.6932 -5.53453 -1.84712
lowerback -17.7346 2.04396 0.385338
upperback -5.89455 2.59677 0.20899
thorax 3.62031 1.28022 0.531858
lowerneck -4.90901 -0.714724 -0.158985
upperneck 10.64 -1.01371 0.591507
head 4.38462 -0.477693 0.173081
rclavicle -8.14241e-015 1.46604e-015
rhumerus -29.6445 8.81052 -85.8331
rradius 62.7834
rwrist -20.1721
rhand -19.073 -33.2083
rfingers 7.12502
rthumb 7.23471 -63.0646
lclavicle -8.14241e-015 1.46604e-015
lhumerus -59.2972 22.5362 59.698
lradius 13.2372
lwrist -29.8997
lhand -12.0032 -15.7293
lfingers 7.12502
lthumb 14.0539 13.7756
rfemur 0.0685929 -4.93056 21.928
rtibia 21.4697
rfoot -20.8227 18.2879
rtoes -9.83156
lfemur -49.6136 3.58601 -21.3106
ltibia 20.9718
lfoot -6.36869 1.50005
ltoes -15.6955
288
root -0.245116 15.9328 13.5654 18.7402 -5.11404 -1.55485
lowerback -17.9542 1.86042 -0.139683
upperback -5.95426 2.45102 0.104238
thorax 3.65569 1.20989 0.694484
lowerneck -4.8998 -0.823405 -0.334698
upperneck 10.6248 -1.18139 0.935582
head 4.38252 -0.550737 0.311116
rclavicle -3.76138e-015 4.02539e-015
rhumerus -30.3779 8.44389 -85.8861
rradius 62.5398
rwrist -20.3157
rhand -19.1683 -33.6265
rfingers 7.12502
rthumb 7.14273 -63.486
lclavicle -3.76138e-015 4.02539e-015
lhumerus -59.9482 23.712 57.5309
lradius 12.8328
lwrist -32.0243
lhand -12.2785 -16.0425
lfingers 7.12502
lthumb 13.7887 13.4805
rfemur 0.276793 -4.59264 21.6354
rtibia 22.3366
rfoot -19.5339 17.9677
rtoes -11.8164
lfemur -49.8944 2.93711 -21.4952
ltibia 22.5147
lfoot -3.89996 1.13624
ltoes -18.0957
289
root -0.249348 15.9354 13.7873 18.969 -5.26493 -1.34749
lowerback -18.2367 1.85406 -0.772125
upperback -6.0329 2.55892 -0.014076
thorax 3.69642 1.26499 0.957401
lowerneck -4.98657 -0.948566 -0.484429
upperneck 10.6358 -1.37386 1.27987
head 4.41076 -0.634519 0.443052
rclavicle -1.54679e-015 1.68967e-015
rhumerus -30.8883 7.94961 -85.9572
rradius 61.8887
rwrist -20.3495
rhand -19.1012 -33.1294
rfingers 7.12502
rthumb 7.20745 -62.9866
lclavicle -1.54679e-015 1.68967e-015
lhumerus -60.4596 24.8615 55.4605
lradius 12.5026
lwrist -34.0647
lhand -12.4285 -16.1716
lfingers 7.12502
lthumb 13.644 13.3613
rfemur 0.0701546 -3.72213 21.3428
rtibia 23.451
rfoot -18.294 17.5851
rtoes -13.1012
lfemur -50.4429 2.6179 -21.3965
ltibia 23.993
lfoot -2.06892 0.239481
ltoes -13.1457
290
root -0.240463 15.9354 14.0326 19.1165 -5.23491 -1.2922
lowerback -18.6896 1.87559 -0.978057
upperback -6.07815 2.63389 -0.157192
thorax 3.88094 1.29995 0.953932
lowerneck -5.05009 -1.0566 -0.579601
upperneck 10.7637 -1.55268 1.64666
head 4.47784 -0.707667 0.574033
rclavicle 5.72748e-015 8.74653e-015
rhumerus -31.6223 7.28021 -86.0654
rradius 61.1691
rwrist -19.8797
rhand -18.0284 -31.3625
rfingers 7.12502
rthumb 8.24288 -61.1817
lclavicle 5.72748e-015 8.74653e-015
lhumerus -61.1735 26.1312 52.9935
lradius 12.0962
lwrist -36.5124
lhand -12.2879 -15.8905
lfingers 7.12502
lthumb 13.7796 13.6332
rfemur -0.234508 -3.3859 21.1018
rtibia 25.0878
rfoot -16.2118 18.1003
rtoes -10.2173
lfemur -50.7289 2.38462 -21.2596
ltibia 25.2673
lfoot -0.967987 -0.708963
ltoes -6.77611
291
root -0.224397 15.9374 14.2975 18.9583 -4.45466 -0.702647
lowerback -19.0408 1.55324 -1.47387
upperback -6.032 2.32276 -0.42074
thorax 4.11102 1.14385 0.901234
lowerneck -5.287 -1.13131 -0.63812
upperneck 11.0266 -1.69776 2.05143
head 4.63072 -0.758626 0.71351
rclavicle 1.72446e-014 -4.57205e-015
rhumerus -32.4634 6.73561 -86.2974
rradius 60.5336
rwrist -19.8935
rhand -18.3107 -32.0402
rfingers 7.12502
rthumb 7.97051 -61.8699
lclavicle 1.72446e-014 -4.57205e-015
lhumerus -62.1478 27.7615 49.8562
lradius 11.5306
lwrist -39.5193
lhand -12.1143 -15.7037
lfingers 7.12502
lthumb 13.9469 13.8085
rfemur -0.387903 -3.9436 20.4997
rtibia 27.1746
rfoot -13.9446 18.4596
rtoes -8.76064
lfemur -50.6264 1.81214 -21.93
ltibia 26.6642
lfoot -0.40905 -1.97459
ltoes -4.91173
292
root -0.244543 15.9341 14.5067 18.3283 -3.57013 0.46459
lowerback -18.1135 0.964931 -3.1076
upperback -6.06005 1.83642 -0.692623
thorax 3.56061 0.917794 1.40744
lowerneck -5.43268 -1.23404 -0.659543
upperneck 11.1796 -1.87809 2.40356
head 4.72584 -0.828359 0.827059
rclavicle 7.93896e-015 9.34288e-015
rhumerus -33.1975 5.80151 -86.3012
rradius 59.4442
rwrist -18.6136
rhand -16.0733 -32.7634
rfingers 7.12502
rthumb 10.1294 -62.4995
lclavicle 7.93896e-015 9.34288e-015
lhumerus -63.1027 29.1114 47.0688
lradius 11.209
lwrist -42.0554
lhand -11.9126 -15.4346
lfingers 7.12502
lthumb 14.1412 14.0642
rfemur -0.499406 -3.78016 19.8362
rtibia 29.6292
rfoot -11.6897 17.3867
rtoes -10.9236
lfemur -50.0427 1.33649 -23.25
ltibia 28.0267
lfoot -0.283194 -3.05839
ltoes -6.3336
293
root -0.248294 15.9295 14.7224 18.6302 -4.0344 0.506919
lowerback -18.2346 1.08825 -3.52025
upperback -6.30526 2.07459 -0.846389
thorax 3.34112 1.04328 1.52516
lowerneck -5.1842 -1.34391 -0.605761
upperneck 11.0017 -2.05873 2.67831
head 4.61722 -0.904127 0.900814
rclavicle 4.68386e-015 -3.18055e-015
rhumerus -34.1026 5.25175 -86.6554
rradius 58.6517
rwrist -19.3612
rhand -16.8525 -37.4525
rfingers 7.12502
rthumb 9.37766 -67.2239
lclavicle 4.68386e-015 -3.18055e-015
lhumerus -63.7707 29.864 45.1459
lradius 11.1457
lwrist -43.7611
lhand -11.9138 -15.3041
lfingers 7.12502
lthumb 14.14 14.1948
rfemur -1.88548 -3.22956 19.5294
rtibia 32.3545
rfoot -8.29284 17.894
rtoes -8.3571
lfemur -50.2822 2.17784 -23.8839
ltibia 29.3807
lfoot -1.05498 -3.50168
ltoes -9.65204
294
root -0.248242 15.9306 14.9428 18.3945 -3.58323 1.02974
lowerback -18.0408 0.833324 -4.235
upperback -6.28735 1.86666 -1.05775
thorax 3.24968 0.945898 1.65839
lowerneck -5.04443 -1.40921 -0.543296
upperneck 10.8086 -2.17819 2.9528
head 4.52481 -0.949437 0.975981
rclavicle -2.39039e-014 7.15625e-015
rhumerus -34.8607 4.32393 -86.7858
rradius 57.9868
rwrist -19.3562
rhand -15.8321 -43.137
rfingers 7.12502
rthumb 10.3621 -72.8617
lclavicle -2.39039e-014 7.15625e-015
lhumerus -64.3202 30.7865 43.2647
lradius 11.0779
lwrist -45.3697
lhand -11.83 -15.5815
lfingers 7.12502
lthumb 14.2209 13.9117
rfemur -2.87185 -3.41158 19.0658
rtibia 35.5492
rfoot -4.53324 17.6882
rtoes -5.97623
lfemur -49.969 2.06217 -24.6844
ltibia 30.6417
lfoot -2.132 -4.34062
ltoes -9.88354
295
root -0.25286 15.9351 15.1615 17.6765 -2.58588 1.87866
lowerback -17.3111 0.347015 -5.29278
upperback -6.09431 1.38292 -1.26358
thorax 3.07269 0.714981 1.92947
lowerneck -5.16938 -1.49715 -0.597562
upperneck 10.8068 -2.32634 3.25676
head 4.55993 -1.00848 1.08053
rclavicle 1.41634e-015 4.77083e-015
rhumerus -35.6122 3.50775 -86.8874
rradius 56.5005
rwrist -18.3955
rhand -14.266 -44.1614
rfingers 7.12502
rthumb 11.8726 -73.8048
lclavicle 1.41634e-015 4.77083e-015
lhumerus -64.7547 31.8496 41.5657
lradius 11.0491
lwrist -46.7712
lhand -11.4376 -15.3347
lfingers 7.12502
lthumb 14.599 14.1315
rfemur -3.3888 -4.06653 18.482
rtibia 38.6957
rfoot -0.531113 16.9316
rtoes -6.83343
lfemur -49.0213 1.26425 -25.4585
ltibia 31.8145
lfoot -3.2228 -5.2905
ltoes -7.36182
296
root -0.255299 15.9478 15.3528 18.2706 -3.5093 1.99232
lowerback -17.5929 0.536812 -5.79472
upperback -6.34653 1.72797 -1.41174
thorax 2.91306 0.896655 2.12375
lowerneck -5.23131 -1.57623 -0.588297
upperneck 10.7279 -2.45371 3.4512
head 4.55081 -1.06146 1.13735
rclavicle 3.64273e-014 -7.15625e-015
rhumerus -36.2823 2.87007 -87.0643
rradius 54.5588
rwrist -18.0341
rhand -16.9367 -34.5992
rfingers 7.12502
rthumb 9.29638 -64.3743
lclavicle 3.64273e-014 -7.15625e-015
lhumerus -65.1836 32.9127 39.8457
lradius 10.8658
lwrist -48.1748
lhand -11.3868 -14.968
lfingers 7.12502
lthumb 14.6479 14.4946
rfemur -6.10583 -3.26803 17.9477
rtibia 42.0387
rfoot 4.28636 16.4914
rtoes -6.73286
lfemur -49.351 1.74407 -25.7359
ltibia 32.6398
lfoot -3.93428 -5.27812
ltoes -4.77265
297
root -0.248897 15.9603 15.5766 17.5923 -2.55283 2.90133
lowerback -16.9735 0.0537136 -6.67972
upperback -6.17509 1.21215 -1.67446
thorax 2.78872 0.647837 2.23633
lowerneck -5.10353 -1.58288 -0.53318
upperneck 10.6023 -2.48727 3.66879
head 4.4837 -1.06778 1.1995
rclavicle -8.57259e-015 7.95139e-016
rhumerus -37.0068 2.36599 -87.3495
rradius 53.5467
rwrist -18.2904
rhand -19.2083 -31.8004
rfingers 7.12502
rthumb 7.10413 -61.6611
lclavicle -8.57259e-015 7.95139e-016
lhumerus -65.0767 33.192 39.3673
lradius 10.7662
lwrist -48.2529
lhand -11.5896 -15.3088
lfingers 7.12502
lthumb 14.4525 14.168
rfemur -6.85568 -3.97038 17.136
rtibia 45.2364
rfoot 7.83131 15.8853
rtoes -5.40487
lfemur -47.9674 0.936557 -26.5834
ltibia 33.1905
lfoot -4.64919 -5.72003
ltoes -2.48749
298
root -0.247185 15.9725 15.7851 17.2609 -2.41332 3.66938
lowerback -16.5779 -0.145476 -7.56895
upperback -6.10353 1.07106 -1.93861
thorax 2.64775 0.58685 2.42476
lowerneck -5.26074 -1.62831 -0.604079
upperneck 10.6888 -2.57742 3.94965
head 4.55744 -1.09853 1.30326
rclavicle -7.35503e-015 1.55052e-014
rhumerus -37.6311 1.7882 -87.6062
rradius 52.4623
rwrist -18.7147
rhand -19.9811 -31.4048
rfingers 7.12502
rthumb 6.35805 -61.2894
lclavicle -7.35503e-015 1.55052e-014
lhumerus -64.2929 33.0828 40.1309
lradius 10.859
lwrist -47.3476
lhand -11.7669 -15.7445
lfingers 7.12502
lthumb 14.2817 13.7444
rfemur -8.09802 -3.94433 16.2442
rtibia 48.4411
rfoot 10.5418 16.1504
rtoes -3.59403
lfemur -46.9923 0.719377 -27.4181
ltibia 33.6351
lfoot -5.46529 -5.88257
ltoes -3.65185
